<svg xmlns="http://www.w3.org/2000/svg" viewBox="0 0 24 24" fill="#5f6673" aria-hidden="true">
  <path d="M12 .5C5.65.5.5 5.65.5 12c0 5.08 3.29 9.39 7.86 10.91.58.11.79-.25.79-.56v-2.17c-3.2.7-3.87-1.36-3.87-1.36-.52-1.33-1.28-1.68-1.28-1.68-1.05-.72.08-.71.08-.71 1.16.08 1.77 1.19 1.77 1.19 1.03 1.76 2.7 1.25 3.36.96.1-.75.4-1.25.73-1.54-2.55-.29-5.23-1.28-5.23-5.68 0-1.25.45-2.28 1.18-3.08-.12-.29-.51-1.46.11-3.04 0 0 .97-.31 3.16 1.18.92-.25 1.9-.38 2.88-.38.98 0 1.96.13 2.88.38 2.19-1.49 3.15-1.18 3.15-1.18.63 1.58.24 2.75.12 3.04.74.8 1.18 1.83 1.18 3.08 0 4.42-2.69 5.38-5.25 5.67.41.36.78 1.06.78 2.14v3.18c0 .31.21.67.8.56A11.51 11.51 0 0 0 23.5 12C23.5 5.65 18.35.5 12 .5Z"/>
</svg>
